<?xml version="1.0" encoding="utf-8"?>
<!-- Generator: Adobe Illustrator 21.1.0, SVG Export Plug-In . SVG Version: 6.00 Build 0)  -->
<svg version="1.1" id="Layer_1" xmlns="http://www.w3.org/2000/svg" xmlns:xlink="http://www.w3.org/1999/xlink" x="0px" y="0px"
	 viewBox="0 0 799.1 331.9" style="enable-background:new 0 0 799.1 331.9;" xml:space="preserve">
<style type="text/css">
	.st0{fill:#FFFFFF;}
	.st1{fill:none;}
</style>
<g>
	<path class="st0" d="M687.5,201.3l-4.3-0.5c-5.1-0.7-5.6-1.2-5.6-14.2v-84.4c0-6.9,0.3-14.5,0.5-20.1l0.1-2.1c0-1.1-0.5-2-1.4-2.4
		c-0.7-0.4-1.6-0.3-2.4,0.1c-6.2,3.3-14.4,5.9-18.8,7.3l-0.2,0.1c-2.1,0.7-2.5,2.1-2.5,2.7c-0.1,1.3,0.8,2.7,2.2,3.3l1.8,1.1
		c4.7,2.8,4.9,3.3,4.9,13.6v80.7c0,13.4-0.4,13.5-5.6,14.2l-3.6,0.5c-1.5,0.2-2.4,1.5-2.3,3.4c0.1,1.9,1.1,3.7,2.7,3.7h0.1
		c5.4-0.3,10.6-0.5,16.6-0.5c5.8,0,10.9,0.2,17.1,0.5h0.2c1.7,0,2.3-2,2.4-3.7C689.6,201.7,688,201.4,687.5,201.3"/>
	<path class="st0" d="M699.7,107.8c-1.4-2.4-2.1-5.1-1.9-7.8c-0.2-0.1-0.5-0.2-0.7-0.2c-0.5-0.1-1.1-0.2-1.6-0.2
		c-3.2,0-5.9,2.1-6.7,5.2c-0.4,1.8-0.2,3.6,0.8,5.2c0.9,1.6,2.4,2.7,4.2,3.1c0.5,0.1,1.1,0.2,1.7,0.2c0.1,0,0.1,0,0.2,0
		c-0.8,1.7-1.6,3.2-2.2,4.3l2.3,0.6c1-1.2,2-2.6,3-4c0.9-1.4,1.7-2.6,2.3-3.7c0.1-0.2,0.2-0.3,0.3-0.5
		C700.7,109.2,700.2,108.5,699.7,107.8"/>
	<path class="st0" d="M703.7,107.9c1.3,1.4,3,2.3,4.9,2.8c0.8,0.2,1.6,0.3,2.4,0.3c0.1,0,0.2,0,0.3,0c-0.2,0.5-0.4,0.9-0.7,1.3
		c-1,1.9-1.8,3.6-2.6,5l3.4,0.8c1.5-1.8,2.9-3.8,4.4-6c0.3-0.5,0.7-1,1-1.5c0.9-1.4,1.7-2.8,2.4-4c0.7-1,1.3-2.2,1.6-3.5
		c1.3-5.4-2-10.9-7.4-12.2c-0.8-0.2-1.6-0.3-2.4-0.3c-4.7,0-8.7,3.2-9.8,7.7c-0.1,0.5-0.2,1-0.2,1.4c-0.2,2.2,0.3,4.3,1.4,6.2
		C702.7,106.7,703.2,107.3,703.7,107.9"/>
	<path class="st0" d="M703.2,182.6c-5.2,0-9.4,4.2-9.4,9.4s4.2,9.4,9.4,9.4s9.4-4.2,9.4-9.4C712.6,186.8,708.4,182.6,703.2,182.6
		 M703.2,199.9c-4.4,0-7.9-3.5-7.9-7.9s3.5-7.9,7.9-7.9s7.9,3.5,7.9,7.9C711.1,196.4,707.6,199.9,703.2,199.9 M705.8,193.2
		c-0.3-0.3-0.6-0.6-1.1-0.8c0.9-0.1,1.5-0.4,1.9-0.9s0.7-1.1,0.7-1.8c0-0.6-0.1-1.1-0.4-1.5c-0.3-0.5-0.7-0.8-1.1-0.9
		c-0.5-0.2-1.2-0.3-2.3-0.3h-4.2v9.8h2v-4.1h0.4c0.5,0,0.8,0,1,0.1s0.4,0.2,0.6,0.4c0.2,0.2,0.5,0.7,1,1.4l1.4,2.1h2.4l-1.2-1.9
		C706.5,194,706.1,193.5,705.8,193.2 M702.7,191h-1.5v-2.5h1.5c0.8,0,1.3,0,1.4,0c0.3,0.1,0.6,0.2,0.7,0.4c0.2,0.2,0.3,0.5,0.3,0.8
		s-0.1,0.5-0.2,0.7c-0.1,0.2-0.3,0.3-0.6,0.4C704.3,191,703.7,191,702.7,191"/>
	<g>
		<path class="st0" d="M108.9,163.5L108,163c-6-3.4-12.2-7-12.2-13.1c0-5.8,4-9.5,10.1-9.5c6.7,0,12.7,4.7,15.6,12.2
			c0.9,2.3,2.1,2.8,3,2.8c1.6,0,2.8-1.7,2.8-3.8c0-4.7-1.1-10.5-2.9-15l-0.1-0.3l-0.2-0.2c-1.9-1.7-8.8-3.6-16.6-3.6
			c-15.3,0-25.6,8.7-25.6,21.7c0,11.2,8.8,17.7,18.4,23.1c6.9,3.9,13.1,8,13.1,15.2c0,7.4-5.5,10.1-10.6,10.1
			c-11.8,0-16.8-12.2-18.4-17.4c-0.8-2.7-2.6-2.9-3.1-2.9c-1.6,0-2.8,1.4-2.9,3.4c-0.3,6.2,0.7,15,2.3,18.6l0.1,0.3l0.3,0.2
			c4.8,3.8,11.3,5.7,19.9,5.7c13,0,27.1-6.8,27.1-21.7C127.7,175.3,118.4,168.9,108.9,163.5"/>
		<path class="st0" d="M259.4,201.3l-4.3-0.5c-5.1-0.7-5.6-1.2-5.6-14.2v-30.7c0-14.5-8.7-23.5-22.6-23.5c-9.7,0-19,5.1-25,9.3
			c-1.3,0.9-2.1,1.3-2.9,1.3c-5.4-7.6-10.9-10.6-19.7-10.6c-7.4,0-15.5,3-24.1,9.1c-0.2-0.1-0.3-0.3-0.3-0.5c0-1.3,0-4.1,0.3-8.3
			c0.1-0.9-0.2-1.6-0.7-2.2c-0.8-0.9-2.4-1-3.4-0.3c-3.4,2.5-13.4,7.1-17.5,8.6c-1.1,0.4-1.8,1.2-2,2.2c-0.2,1.1,0.3,2.4,1.4,3.3
			l1.7,1.2c4.2,2.8,4.2,3.1,4.2,10v31.2c0,12.9-0.2,13.4-5.6,14.2l-4.3,0.5c-1.4,0.2-2.2,1.6-2.1,3.5c0.1,1.8,1,3.6,2.7,3.6
			c5.2-0.4,10.5-0.5,17.2-0.5c5.5,0,10.7,0.2,16.1,0.5h0.2c1.4,0,2.5-1.3,2.7-3.3c0.2-2.1-0.7-3.6-2.2-3.8l-3.2-0.5
			c-5.1-0.9-5.7-0.9-5.7-14.2V159c0-5.4,0.8-7.5,2.4-9.3c1.5-1.8,5.8-5.9,14-5.9c10.1,0,15.1,5.6,15.1,17v25.9
			c0,13.3-0.4,13.3-5.7,14.2l-3.3,0.5c-1.4,0.3-2.1,1.7-1.9,3.8c0.2,2.1,1.1,3.3,2.5,3.3h0.2h0.2c5.2-0.4,9.9-0.5,15.9-0.5
			c5.5,0,10.5,0.2,16.7,0.5h0.2c1.5,0,2.5-1.2,2.7-3.2c0.1-1.7-0.5-3.7-2.2-4l-3.8-0.5c-5.1-0.7-5.6-1.2-5.6-14.2v-27.3
			c0-6,0.5-7.5,2.4-9.9c2.2-2.8,7.3-5.7,13.7-5.7c10.4,0,15.2,5.4,15.2,17v25.9c0,13.3-0.4,13.3-5.7,14.2l-3.3,0.5
			c-1.4,0.3-2.2,1.9-2,4c0.2,1.9,1.2,3.2,2.6,3.2h0.4c5.2-0.4,10-0.5,15.9-0.5c5.8,0,10.9,0.2,17.1,0.5h0.2c1.7,0,2.6-1.8,2.8-3.5
			C261.8,203,260.9,201.6,259.4,201.3"/>
		<path class="st0" d="M463.1,132.4c-22.5,0-39.4,17.2-39.4,39.9c0,22.1,16,38.1,37.9,38.1c23,0,39-16.3,39-39.7
			C500.7,148.9,484.6,132.4,463.1,132.4 M463.5,202.4c-10.4,0-21.7-10.1-21.7-32.4c0-17.9,7.5-29.5,19.2-29.5
			c17.1,0,21.7,20.8,21.7,33.1C482.7,200.3,468,202.4,463.5,202.4"/>
		<path class="st0" d="M647.2,197.6c-0.8,0-1.5,0.6-2.4,1.4c-0.3,0.3-0.7,0.6-1,0.8c-0.7,0.5-1.3,0.9-2.9,0.9c-1.7,0-3-0.5-4-1.6
			c-2.1-2.2-3.1-6.8-2.9-13.3l1.1-31c0.3-7.4-1.4-13.1-5.1-16.9c-3.4-3.6-8.4-5.4-14.8-5.4c-15.7,0-34.5,14.3-34.5,23.3
			c0,2.3,1.5,3.9,3.8,3.9c2.8,0,7.2-1.3,10.2-3.7c2-1.5,2.2-4.2,2.3-7.1c0.3-4.6,6.5-6.7,10.8-6.7c3.6,0,6.4,1,8.3,3
			c3.1,3.2,3.5,8.3,3.4,11.1l-0.2,8.2c0,2.6-0.4,3.3-2.1,3.9l-21.2,7.7c-11.5,4.1-15.7,8.6-15.7,16.4c0,5.2,2.2,10.1,6,13.5
			c3.3,2.9,7.9,4.5,13.4,4.5c5.1,0,9-2.2,12.9-4.3l0.7-0.4c1.1-0.6,2.1-1.2,2.9-1.7c1.4-0.8,2.9-1.7,3.4-1.7c0.1,0,0.6,0.2,1.8,2
			c3,3.9,7.5,6.1,12.7,6.1c9.2,0,15.1-7.4,15.5-9.2C649.8,199.1,648.7,197.6,647.2,197.6 M618.8,177.6l-0.4,10.5v0.6
			c-0.2,3.3-0.2,5.3-1.9,6.9c-1.6,1.6-6.7,4-9.9,4c-9.6,0-9.9-9.2-9.9-9.3c0-6,4.4-8.4,14.8-11.9c3.2-1.1,6.1-1.7,6.9-1.7
			c0.2,0,0.3,0,0.3,0C618.7,176.8,618.8,177.1,618.8,177.6"/>
		<path class="st0" d="M426.5,201.3l-4.3-0.5c-5.1-0.7-5.6-1.2-5.6-14.2v-84.4c0-6.9,0.3-14.5,0.5-20.1l0.1-2.1c0-1.1-0.5-2-1.4-2.4
			c-0.7-0.4-1.6-0.3-2.4,0.1c-6.2,3.3-14.4,5.9-18.8,7.3l-0.2,0.1c-2.1,0.7-2.5,2.1-2.5,2.7c-0.1,1.3,0.8,2.7,2.2,3.3l1.8,1.1
			c4.7,2.8,4.9,3.3,4.9,13.6v80.7c0,13.4-0.4,13.5-5.6,14.2l-4.1,0.5c-1.5,0.2-2.4,1.5-2.3,3.4s1.1,3.7,2.7,3.7h0.6
			c5.4-0.3,10.6-0.5,16.6-0.5c5.8,0,10.9,0.2,17.1,0.5h0.2c1.6,0,2.3-2,2.4-3.7C428.6,201.7,426.9,201.4,426.5,201.3"/>
		<path class="st0" d="M541.8,132.4c-6.9,0-13.8,1.9-20.7,5.8c-0.1-0.2-0.3-0.8-0.3-2.3v-33.7c0-6.3,0.2-13.5,0.7-21.5l0.1-0.6
			c0-1.1-0.5-2-1.4-2.4c-0.7-0.4-1.6-0.3-2.4,0.1l-0.2,0.1c-4.6,2.4-10,4.2-14.3,5.7c-1.9,0.6-3.5,1.2-4.8,1.7l0,0
			c-2,0.7-2.4,2.1-2.4,2.7c-0.1,1.3,0.8,2.7,2.2,3.3l1.8,1.1c4.7,2.8,4.9,3.2,4.9,13.6v85.1c0,8.9-0.2,12.3-0.4,15.1
			c-0.1,1.3,0.3,2.1,0.7,2.5c0.4,0.5,1,0.7,1.7,0.7c1.3,0,2.1-0.9,2.4-1.3l0.1-0.2c0.9-1.3,2-2.1,2.7-2.1c0.7,0,2.1,0.5,3.8,1.1
			c0.9,0.3,2,0.7,3.3,1.2c3.7,1.1,8.9,2.4,15.6,2.4c25,0,42.4-17.1,42.4-41.7C577.2,147.7,562.3,132.4,541.8,132.4 M537.5,202.4
			c-5.3,0-9.7-1.9-12.5-5.4c-2.7-3.4-4.2-8.4-4.2-14.7v-27.8c0-6.8,0.4-8.3,1.5-9c2.6-1.6,6.9-2.6,11.4-2.6
			c15.7,0,25.8,12.3,25.8,31.3C559.6,180.7,558,202.4,537.5,202.4"/>
		<path class="st0" d="M293.9,163.5L293,163c-6-3.4-12.2-7-12.2-13.1c0-5.8,4-9.5,10.1-9.5c6.7,0,12.7,4.7,15.6,12.2
			c0.9,2.3,2.1,2.8,3,2.8c1.6,0,2.8-1.7,2.8-3.8c0-4.7-1.1-10.5-3-15l-0.1-0.3l-0.2-0.2c-1.9-1.7-8.8-3.6-16.6-3.6
			c-15.3,0-25.6,8.7-25.6,21.7c0,11.2,8.8,17.7,18.4,23.1c6.9,3.9,13.1,8,13.1,15.2c0,7.4-5.5,10.1-10.6,10.1
			c-11.8,0-16.8-12.2-18.4-17.4c-0.8-2.7-2.6-2.9-3.1-2.9c-1.6,0-2.8,1.4-2.9,3.4c-0.3,6.2,0.7,15,2.3,18.6l0.1,0.3l0.3,0.2
			c4.8,3.8,11.3,5.7,19.9,5.7c13,0,27.1-6.8,27.1-21.7C312.7,175.3,303.4,168.9,293.9,163.5"/>
		<path class="st0" d="M390.6,138.9l-0.2-0.1h-14.8c-3.7,0-4.8-0.3-10.5-2.8c-2.6-1.1-9.4-3.7-17.8-3.7c-17.1,0-30.5,12.5-30.5,28.4
			c0,13.2,9.3,20.1,13.3,22.4c-0.2,0.5-0.6,1.2-1.3,2c-3.3,3.4-6.6,6.3-9.4,8.1c-1.9,1.4-3.2,2.4-3.2,4c0,6.5,6,13.2,13.8,15.3l0,0
			c0,0.2-0.3,0.8-1.8,2.3c-1.7,1.7-3.6,3.6-5.4,5.3c-2.6,2.5-5,4.8-6.8,6.8c-1.5,1.7-2.3,4.3-2.3,7.5c0,8.2,6.5,22.1,31.1,22.1
			c25.4,0,46-15.8,46-35.2c0-21-19.9-21-26.4-21c-4.2,0-8.2,0.2-12.1,0.3c-3.3,0.1-6.5,0.2-9.3,0.2c-6.9,0-11.4-2.5-11.4-6.3
			c0-4.3,4.9-7.4,7-8.7c0.4,0,0.8,0.1,1.3,0.1c1.8,0.2,3.9,0.4,6.4,0.4c23.2,0,31.4-16.1,31.4-29.8c0-2.6,0-5.3-0.2-8H389h0.2
			c1.7-0.2,3-1.8,3.3-4.2C392.7,142.3,392.3,139.7,390.6,138.9 M348.9,178.7c-7.3,0-15.1-6.9-15.1-19.8c0-11.1,5.7-18.9,13.9-18.9
			c10.9,0,14.8,11,14.8,21.3C362.4,172.2,357.3,178.7,348.9,178.7 M329.6,229.7c0-6.7,4.3-11.8,8.1-14.1c1-0.7,4.3-1.8,14.8-1.8h6.1
			c13,0,19.3,4.7,19.3,14.4c0,10.3-10.9,18-25.4,18C338.4,246.3,329.6,240,329.6,229.7"/>
		<rect class="st1" width="799.1" height="331.9"/>
	</g>
</g>
</svg>
